<svg xmlns="http://www.w3.org/2000/svg" xmlns:xlink="http://www.w3.org/1999/xlink" width="840" height="191.97"><rect width="840" height="191.97" rx="0" ry="0" class="a"></rect><svg height="151.97" viewBox="0 0 80 15.197" width="800" x="20" xmlns="http://www.w3.org/2000/svg" xmlns:xlink="http://www.w3.org/1999/xlink" y="20"><style>.a{fill:rgb(40,45,53)}.b{font-family:'Fira Code',Monaco,Consolas,Menlo,'Bitstream Vera Sans Mono','Powerline Symbols',monospace}.c{fill:rgb(185,192,203);white-space:pre}.d{fill:transparent}.e{fill:rgb(255,0,0)}.f{fill:rgb(0,0,0);white-space:pre}.g{fill:rgb(255,255,0)}.h{fill:rgb(0,255,0)}.i{fill:rgb(0,255,255)}.j{fill:rgb(0,0,255)}.k{fill:rgb(248,248,248);white-space:pre}.l{fill:rgb(255,0,255)}.m{fill:rgb(75,0,85)}.n{fill:rgb(39,73,131)}.o{fill:rgb(0,130,152)}.p{fill:rgb(0,178,138)}.q{fill:rgb(126,211,87)}.r{fill:rgb(253,227,51)}</style><g font-family="&#x27;Fira Code&#x27;,Monaco,Consolas,Menlo,&#x27;Bitstream Vera Sans Mono&#x27;,&#x27;Powerline Symbols&#x27;,monospace" font-size="1.67" class="b"><defs><symbol id="1"><text font-size="1.67" x="0" y="1.67" class="c">(6</text><text font-size="1.67" x="3.006" y="1.67" class="c">colors)</text></symbol><symbol id="a"><rect height="7" width="80" x="0" y="0" class="d"></rect></symbol></defs><rect height="15.197" width="80" class="a"></rect><svg x="0" y="0" width="80"><svg x="0"><use xlink:href="#a"></use><text font-size="1.67" x="0" y="1.67" class="c">$rainbow</text><use xlink:href="#1" y="2.171"></use><rect height="2.171" width="7" x="0" y="4.342" class="e"></rect><text font-size="1.67" x="0" y="6.012" class="f">#FF0000</text><rect height="2.171" width="7" x="8.016" y="4.342" class="g"></rect><text font-size="1.67" x="8.016" y="6.012" class="f">#FFFF00</text><rect height="2.171" width="7" x="16.032" y="4.342" class="h"></rect><text font-size="1.67" x="16.032" y="6.012" class="f">#00FF00</text><rect height="2.171" width="7" x="24.048" y="4.342" class="i"></rect><text font-size="1.67" x="24.048" y="6.012" class="f">#00FFFF</text><rect height="2.171" width="7" x="32.064" y="4.342" class="j"></rect><text font-size="1.67" x="32.064" y="6.012" class="k">#0000FF</text><rect height="2.171" width="7" x="40.08" y="4.342" class="l"></rect><text font-size="1.67" x="40.08" y="6.012" class="f">#FF00FF</text><text font-size="1.67" x="0" y="10.354" class="c">$hcl.colors</text><use xlink:href="#1" y="10.855"></use><rect height="2.171" width="7" x="0" y="13.026" class="m"></rect><text font-size="1.67" x="0" y="14.696" class="k">#4B0055</text><rect height="2.171" width="7" x="8.016" y="13.026" class="n"></rect><text font-size="1.67" x="8.016" y="14.696" class="k">#274983</text><rect height="2.171" width="7" x="16.032" y="13.026" class="o"></rect><text font-size="1.67" x="16.032" y="14.696" class="f">#008298</text><rect height="2.171" width="7" x="24.048" y="13.026" class="p"></rect><text font-size="1.67" x="24.048" y="14.696" class="f">#00B28A</text><rect height="2.171" width="7" x="32.064" y="13.026" class="q"></rect><text font-size="1.67" x="32.064" y="14.696" class="f">#7ED357</text><rect height="2.171" width="7" x="40.08" y="13.026" class="r"></rect><text font-size="1.67" x="40.08" y="14.696" class="f">#FDE333</text></svg></svg></g></svg></svg>