<svg xmlns="http://www.w3.org/2000/svg" xmlns:xlink="http://www.w3.org/1999/xlink" width="840" height="191.97"><rect width="840" height="191.97" rx="0" ry="0" class="a"></rect><svg height="151.97" viewBox="0 0 80 15.197" width="800" x="20" xmlns="http://www.w3.org/2000/svg" xmlns:xlink="http://www.w3.org/1999/xlink" y="20"><style>.a{fill:rgb(40,45,53)}.b{font-family:'Fira Code',Monaco,Consolas,Menlo,'Bitstream Vera Sans Mono','Powerline Symbols',monospace}.c{fill:transparent}.d{fill:rgb(185,192,203);white-space:pre}.e{fill:rgb(243,248,77)}.f{fill:rgb(0,0,0);white-space:pre}.g{fill:rgb(18,18,18)}.h{fill:rgb(248,248,248);white-space:pre}.i{fill:rgb(127,255,0)}.j{fill:rgb(13,90,25)}.k{fill:rgb(42,184,210)}.l{fill:rgb(0,191,255)}.m{fill:rgb(230,230,250)}.n{fill:rgb(206,152,98)}.o{fill:rgb(255,62,150)}.p{fill:rgb(180,82,205)}.q{fill:rgb(238,130,98)}.r{fill:rgb(147,112,219)}.s{fill:rgb(13,136,80)}.t{fill:rgb(178,89,71)}.u{fill:rgb(117,90,253)}.v{fill:rgb(238,232,170)}.w{fill:rgb(139,35,35)}.x{fill:rgb(158,117,220)}.y{fill:rgb(169,196,169)}.z{fill:rgb(194,255,6)}.A{fill:rgb(105,139,34)}.B{fill:rgb(49,242,136)}.C{fill:rgb(228,91,163)}.D{fill:rgb(205,133,63)}</style><g font-family="&#x27;Fira Code&#x27;,Monaco,Consolas,Menlo,&#x27;Bitstream Vera Sans Mono&#x27;,&#x27;Powerline Symbols&#x27;,monospace" font-size="1.67" class="b"><defs><symbol id="a"><rect height="7" width="80" x="0" y="0" class="c"></rect></symbol></defs><rect height="15.197" width="80" class="a"></rect><svg x="0" y="0" width="80"><svg x="0"><use xlink:href="#a"></use><text font-size="1.67" x="0" y="1.67" class="d">(6</text><text font-size="1.67" x="3.006" y="1.67" class="d">x</text><text font-size="1.67" x="5.01" y="1.67" class="d">4</text><text font-size="1.67" x="7.013999999999999" y="1.67" class="d">=</text><text font-size="1.67" x="9.017999999999999" y="1.67" class="d">24</text><text font-size="1.67" x="12.024" y="1.67" class="d">colors)</text><rect height="2.171" width="13" x="0" y="2.171" class="e"></rect><text font-size="1.67" x="0" y="3.8409999999999997" class="f">#F3F84D      </text><rect height="2.171" width="13" x="14.027999999999999" y="2.171" class="g"></rect><text font-size="1.67" x="14.027999999999999" y="3.8409999999999997" class="h">gray7        </text><rect height="2.171" width="13" x="28.055999999999997" y="2.171" class="i"></rect><text font-size="1.67" x="28.055999999999997" y="3.8409999999999997" class="f">chartreuse   </text><rect height="2.171" width="13" x="42.083999999999996" y="2.171" class="j"></rect><text font-size="1.67" x="42.083999999999996" y="3.8409999999999997" class="h">#0D5A19      </text><rect height="2.171" width="13" x="0" y="4.342" class="k"></rect><text font-size="1.67" x="0" y="6.012" class="f">#2AB8D2      </text><rect height="2.171" width="13" x="14.027999999999999" y="4.342" class="l"></rect><text font-size="1.67" x="14.027999999999999" y="6.012" class="f">deepskyblue  </text><rect height="2.171" width="13" x="28.055999999999997" y="4.342" class="m"></rect><text font-size="1.67" x="28.055999999999997" y="6.012" class="f">lavender     </text><rect height="2.171" width="13" x="42.083999999999996" y="4.342" class="n"></rect><text font-size="1.67" x="42.083999999999996" y="6.012" class="f">#CE9862      </text><rect height="2.171" width="13" x="0" y="6.513" class="o"></rect><text font-size="1.67" x="0" y="8.183" class="f">violetred1   </text><rect height="2.171" width="13" x="14.027999999999999" y="6.513" class="p"></rect><text font-size="1.67" x="14.027999999999999" y="8.183" class="f">mediumorchid3</text><rect height="2.171" width="13" x="28.055999999999997" y="6.513" class="q"></rect><text font-size="1.67" x="28.055999999999997" y="8.183" class="f">salmon2      </text><rect height="2.171" width="13" x="42.083999999999996" y="6.513" class="r"></rect><text font-size="1.67" x="42.083999999999996" y="8.183" class="f">mediumpurple </text><rect height="2.171" width="13" x="0" y="8.684" class="s"></rect><text font-size="1.67" x="0" y="10.354" class="f">#0D8850      </text><rect height="2.171" width="13" x="14.027999999999999" y="8.684" class="t"></rect><text font-size="1.67" x="14.027999999999999" y="10.354" class="h">#B25947      </text><rect height="2.171" width="13" x="28.055999999999997" y="8.684" class="u"></rect><text font-size="1.67" x="28.055999999999997" y="10.354" class="f">#755AFD      </text><rect height="2.171" width="13" x="42.083999999999996" y="8.684" class="v"></rect><text font-size="1.67" x="42.083999999999996" y="10.354" class="f">palegoldenrod</text><rect height="2.171" width="13" x="0" y="10.855" class="w"></rect><text font-size="1.67" x="0" y="12.525" class="h">brown4       </text><rect height="2.171" width="13" x="14.027999999999999" y="10.855" class="x"></rect><text font-size="1.67" x="14.027999999999999" y="12.525" class="f">#9E75DC      </text><rect height="2.171" width="13" x="28.055999999999997" y="10.855" class="y"></rect><text font-size="1.67" x="28.055999999999997" y="12.525" class="f">#A9C4A9      </text><rect height="2.171" width="13" x="42.083999999999996" y="10.855" class="z"></rect><text font-size="1.67" x="42.083999999999996" y="12.525" class="f">#C2FF06      </text><rect height="2.171" width="13" x="0" y="13.026" class="A"></rect><text font-size="1.67" x="0" y="14.696" class="f">olivedrab4   </text><rect height="2.171" width="13" x="14.027999999999999" y="13.026" class="B"></rect><text font-size="1.67" x="14.027999999999999" y="14.696" class="f">#31F288      </text><rect height="2.171" width="13" x="28.055999999999997" y="13.026" class="C"></rect><text font-size="1.67" x="28.055999999999997" y="14.696" class="f">#E45BA3      </text><rect height="2.171" width="13" x="42.083999999999996" y="13.026" class="D"></rect><text font-size="1.67" x="42.083999999999996" y="14.696" class="f">peru         </text></svg></svg></g></svg></svg>